<?xml version="1.0" encoding="UTF-8"?>
<svg width="100px" height="81px" viewBox="0 0 100 81" version="1.1" xmlns="http://www.w3.org/2000/svg" xmlns:xlink="http://www.w3.org/1999/xlink">
    <!-- Generator: Sketch 52.3 (67297) - http://www.bohemiancoding.com/sketch -->
    <title>分组</title>
    <desc>Created with Sketch.</desc>
    <defs>
        <polygon id="path-1" points="0.132053422 0.0238464006 24.8522538 0.0238464006 24.8522538 30.1308494 0.132053422 30.1308494"></polygon>
        <polygon id="path-3" points="0 80.8295716 99.9774624 80.8295716 99.9774624 0.0238128613 0 0.0238128613"></polygon>
    </defs>
    <g id="游戏平台" stroke="none" stroke-width="1" fill="none" fill-rule="evenodd">
        <g id="【小程序】登录" transform="translate(-138.000000, -91.000000)">
            <g id="分组" transform="translate(138.000000, 91.000000)">
                <polygon id="Fill-1" fill="#00C1DE" points="54.4178631 31.6048656 60.1792988 31.6048656 60.1792988 10.4494585 54.4178631 10.4494585"></polygon>
                <polygon id="Fill-2" fill="#00C1DE" points="37.7171953 31.6048656 43.4784641 31.6048656 43.4784641 10.4494585 37.7171953 10.4494585"></polygon>
                <polygon id="Fill-3" fill="#00C1DE" points="4.31502504 31.6048656 10.0764608 31.6048656 10.0764608 10.4494585 4.31502504 10.4494585"></polygon>
                <polygon id="Fill-4" fill="#00C1DE" points="21.0156928 31.6048656 26.7771285 31.6048656 26.7771285 10.4494585 21.0156928 10.4494585"></polygon>
                <g transform="translate(0.000000, 0.143883)">
                    <path d="M82.3501002,25.9114452 C79.3342404,25.9114452 76.8804841,23.4469817 76.8804841,20.4170467 L76.8804841,11.305441 L76.8804841,11.1444526 C76.7901669,4.99788358 71.7886644,0.0238464006 65.6495993,0.0238464006 C62.3374124,0.0238464006 59.3562771,1.47240623 57.2988481,3.77085044 C55.241419,1.47240623 52.2602838,0.0238464006 48.9482638,0.0238464006 C45.6360768,0.0238464006 42.6552755,1.47240623 40.5976795,3.77085044 C38.5402504,1.47240623 35.5592821,0.0238464006 32.2470952,0.0238464006 C28.9349082,0.0238464006 25.9541068,1.47240623 23.8966778,3.77085044 C21.8392487,1.47240623 18.8582805,0.0238464006 15.5460935,0.0238464006 C11.9061937,0.0238464006 8.66629382,1.77358862 6.61270451,4.47836073 C5.4145409,3.00917427 3.78248748,1.81182335 1.72823038,1.1289644 L1.66944908e-05,5.58347874 C3.3524374,6.53884402 4.29734558,9.5149486 4.29734558,11.305441 L4.31487479,11.305441 L9.05076795,11.305441 L10.0761436,11.305441 C10.0761436,8.27567364 12.5298998,5.81121018 15.5460935,5.81121018 C18.5621202,5.81121018 21.0158765,8.27567364 21.0158765,11.305441 L26.7771452,11.305441 C26.7773122,8.27567364 29.2309015,5.81121018 32.2470952,5.81121018 C35.2629549,5.81121018 37.717212,8.27567364 37.717212,11.305441 L43.4784808,11.305441 C43.4784808,8.27567364 45.9320701,5.81121018 48.9482638,5.81121018 C51.9642905,5.81121018 54.4178798,8.27567364 54.4178798,11.305441 L60.1793155,11.305441 C60.1794825,8.27567364 62.6332387,5.81121018 65.6495993,5.81121018 C68.6639566,5.81121018 71.1168781,8.27332589 71.1190484,11.3010809 L71.1190484,20.4170467 C71.1190484,26.6377375 76.1577796,31.6986413 82.3501002,31.6986413 C84.2935058,31.6986413 86.1227212,31.1999128 87.7187145,30.3237001 C85.6040234,29.310815 84.0320701,27.7094839 83.0227212,25.8654964 C82.8018531,25.8928309 82.5783139,25.9114452 82.3501002,25.9114452 Z" id="Fill-5" fill="#00C1DE"></path>
                    <g transform="translate(75.125209, 0.000000)">
                        <mask id="mask-2" fill="white">
                            <use xlink:href="#path-1"></use>
                        </mask>
                        <g id="Clip-8"></g>
                        <path d="M22.9225376,23.6718624 C22.6552588,23.8393909 22.4577629,24.0008823 22.2542571,24.127996 C19.9135225,25.5893008 17.3772955,25.2317725 17.3772955,25.2317725 C18.0676127,23.7706354 18.4564274,22.1392867 18.4564274,20.4173821 L18.4564274,11.1357324 L18.4520868,11.1357324 C18.3611018,4.99318809 13.3614357,0.0238464006 7.22537563,0.0238464006 C4.53722871,0.0238464006 2.06761269,0.978373208 0.132053422,2.56612089 C1.50651085,3.98432771 2.5509182,5.72602051 3.13806344,7.66660101 C4.14073456,6.53163309 5.59916528,5.81121018 7.22537563,5.81121018 C10.2412354,5.81121018 12.6949917,8.27567364 12.6949917,11.305441 L12.6949917,18.121621 C12.6949917,18.7999522 12.1475793,19.3499957 11.4722871,19.3499957 L7.9851419,19.3499957 C7.9851419,24.2190551 11.4350584,29.4713003 18.0290484,30.0894285 C18.3295492,30.1176014 18.6225376,30.1308494 18.9085142,30.1308494 C21.7949917,30.1305141 23.8981636,28.7907891 24.8524207,28.1094394 L22.9225376,23.6718624 Z" id="Fill-7" fill="#00C1DE" mask="url(#mask-2)"></path>
                    </g>
                    <polygon id="Fill-9" fill="#00C1DE" points="27.4388648 65.0265015 29.3934558 64.5608092 25.3804341 47.5617801 29.0213356 47.5617801 29.0213356 45.5438916 21.0353589 45.5438916 21.0353589 43.9526223 19.0023038 43.9526223 19.0023038 45.5438916 11.0166611 45.5438916 11.0166611 47.5617801 14.4874457 47.5617801 10.474591 64.5608092 12.429182 65.0265015 16.5520534 47.5617801 19.0023038 47.5617801 19.0023038 65.4477544 21.0353589 65.4477544 21.0353589 47.5617801 23.3159933 47.5617801"></polygon>
                    <mask id="mask-4" fill="white">
                        <use xlink:href="#path-3"></use>
                    </mask>
                    <g id="Clip-12"></g>
                    <polygon id="Fill-11" fill="#00C1DE" mask="url(#mask-4)" points="4.52604341 46.4902516 9.10734558 46.4902516 9.10734558 44.4725309 4.52604341 44.4725309"></polygon>
                    <polygon id="Fill-13" fill="#00C1DE" mask="url(#mask-4)" points="4.52604341 52.4280389 9.10734558 52.4280389 9.10734558 50.4103182 4.52604341 50.4103182"></polygon>
                    <polygon id="Fill-14" fill="#00C1DE" mask="url(#mask-4)" points="5.12358932 65.0808686 3.31490818 64.2033144 7.11741235 56.294929 8.92609349 57.1726509"></polygon>
                    <polygon id="Fill-15" fill="#00C1DE" mask="url(#mask-4)" points="69.0173623 46.4902516 73.5984975 46.4902516 73.5984975 44.4725309 69.0173623 44.4725309"></polygon>
                    <polygon id="Fill-16" fill="#00C1DE" mask="url(#mask-4)" points="69.0173623 52.4280389 73.5984975 52.4280389 73.5984975 50.4103182 69.0173623 50.4103182"></polygon>
                    <polygon id="Fill-17" fill="#00C1DE" mask="url(#mask-4)" points="69.6149583 65.0808686 67.8061102 64.2033144 71.6089482 56.294929 73.4176294 57.1726509"></polygon>
                    <path d="M57.2960768,63.3822905 L40.7124374,63.3822905 C39.7720367,63.3822905 39.0065943,62.6137388 39.0065943,61.6706153 L39.0107679,58.9752342 L59.0062604,58.9752342 L59.0020868,61.6689384 C59.0020868,62.6137388 58.2368114,63.3822905 57.2960768,63.3822905 Z M59.0159432,52.7770147 L59.0094324,56.9326944 L39.0139399,56.9326944 L39.0204508,52.7770147 L59.0159432,52.7770147 Z M39.0282972,47.7622274 C39.0282972,46.8175946 39.7937396,46.0488752 40.7343072,46.0488752 L57.3179466,46.0488752 C58.2583472,46.0488752 59.0237896,46.8175946 59.0237896,47.7605504 L59.0189482,50.7344749 L39.0236227,50.7344749 L39.0282972,47.7639043 L39.0282972,47.7622274 Z M57.3179466,44.0063354 L40.7343072,44.0063354 C38.6728715,44.0063354 36.9957429,45.6903407 36.9950751,47.7605504 L36.9737062,61.6689384 C36.9737062,63.7399865 38.6505008,65.424998 40.7124374,65.424998 L57.2960768,65.424998 C59.3578464,65.424998 61.0351419,63.7399865 61.0351419,61.6706153 L61.0566778,47.7622274 C61.0566778,45.6911792 59.3797162,44.0063354 57.3179466,44.0063354 Z" id="Fill-18" fill="#00C1DE" mask="url(#mask-4)"></path>
                    <polygon id="Fill-19" fill="#00C1DE" mask="url(#mask-4)" points="93.5816528 47.0062026 93.5816528 45.0555603 85.7430885 45.0555603 85.7430885 43.9526223 83.574808 43.9526223 83.574808 45.0555603 75.7364107 45.0555603 75.7364107 47.0062026 83.574808 47.0062026 83.574808 48.1389904 76.8215526 48.1389904 76.8215526 49.9886796 83.574808 49.9886796 83.574808 51.1214675 75.7364107 51.1214675 75.7364107 53.071942 93.5816528 53.071942 93.5816528 51.1214675 85.7430885 51.1214675 85.7430885 49.9886796 92.4963439 49.9886796 92.4963439 48.1389904 85.7430885 48.1389904 85.7430885 47.0062026"></polygon>
                    <path d="M77.6809683,61.80276 L77.6821369,60.0069013 L91.6375626,60.0069013 L91.636394,61.80276 L77.6809683,61.80276 Z M78.2076795,56.3591734 L91.1160267,56.3591734 C91.4046745,56.3591734 91.639399,56.595122 91.639399,56.8847333 L91.6385643,58.1572121 L77.6834725,58.1572121 L77.6843072,56.8854041 C77.6843072,56.595122 77.9190317,56.3591734 78.2076795,56.3591734 Z M91.1160267,54.4086988 L78.2076795,54.4086988 C76.8482471,54.4086988 75.7420701,55.5196862 75.7420701,56.8847333 L75.7365609,65.4469662 L77.6786311,65.4483078 L77.6797997,63.6524491 L91.6353923,63.6524491 L91.6342237,65.4469662 L93.5764608,65.4483078 L93.5816361,56.8854041 C93.5816361,55.5196862 92.4754591,54.4086988 91.1160267,54.4086988 Z" id="Fill-20" fill="#00C1DE" mask="url(#mask-4)"></path>
                    <polygon id="Fill-21" fill="#00C1DE" mask="url(#mask-4)" points="11.3438397 71.1587158 8.72814691 75.6514649 6.11145242 71.1587158 4.92631052 71.1587158 4.52597663 79.7935612 5.68624374 79.7935612 5.98240401 73.2166836 8.36721202 77.2437403 8.9857429 77.2437403 11.4081135 73.1650332 11.691586 79.7935612 12.9032721 79.7935612 12.503773 71.1587158"></polygon>
                    <path d="M30.9623873,76.2076126 C30.9623873,76.5954939 30.9276628,76.9518483 30.8582137,77.2756697 C30.7897663,77.598988 30.6720701,77.8776991 30.5044574,78.1107968 C30.3368447,78.3433914 30.1131386,78.5226587 29.8336728,78.6479278 C29.5555426,78.7735322 29.2046244,78.8352444 28.7834224,78.8352444 C28.354374,78.8352444 27.999616,78.7735322 27.7203172,78.6479278 C27.4410184,78.5226587 27.217813,78.3433914 27.0503673,78.1107968 C26.8830885,77.8776991 26.7650584,77.598988 26.6959432,77.2756697 C26.6274958,76.9518483 26.5927713,76.5954939 26.5927713,76.2076126 L26.5927713,71.1587829 L25.3553756,71.1587829 L25.3553756,76.5051056 C25.3553756,76.9967909 25.4248247,77.4569493 25.5623873,77.8835684 C25.6991152,78.3115292 25.9103005,78.6828086 26.1932721,78.9974066 C26.4769115,79.3130109 26.8336728,79.5608659 27.2635559,79.7419778 C27.6926043,79.9227543 28.2001169,80.0136457 28.7834224,80.0136457 C29.3680634,80.0136457 29.8744073,79.9227543 30.3044574,79.7419778 C30.7343406,79.5608659 31.0880968,79.3130109 31.3675626,78.9974066 C31.6466945,78.6828086 31.8548748,78.3115292 31.9927713,77.8835684 C32.1305008,77.4569493 32.1989482,76.9967909 32.1989482,76.5051056 L32.1989482,71.1587829 L30.9623873,71.1587829 L30.9623873,76.2076126 Z" id="Fill-22" fill="#00C1DE" mask="url(#mask-4)"></path>
                    <polygon id="Fill-23" fill="#00C1DE" mask="url(#mask-4)" points="51.5865275 71.1587158 48.9708347 75.6514649 46.3539733 71.1587158 45.1689983 71.1587158 44.7686644 79.7935612 45.9289316 79.7935612 46.2250918 73.2166836 48.6098998 77.2437403 49.2284307 77.2437403 51.6508013 73.1650332 51.9341068 79.7935612 53.1459599 79.7935612 52.7464608 71.1587158"></polygon>
                    <path d="M71.3227212,76.2076126 C71.3227212,76.5954939 71.2879967,76.9518483 71.2185476,77.2756697 C71.1501002,77.598988 71.0322371,77.8776991 70.8647913,78.1107968 C70.6971786,78.3433914 70.4733055,78.5226587 70.1938397,78.6479278 C69.9157095,78.7735322 69.5649583,78.8352444 69.1435893,78.8352444 C68.7147078,78.8352444 68.3599499,78.7735322 68.0804841,78.6479278 C67.8013523,78.5226587 67.5781469,78.3433914 67.4105342,78.1107968 C67.2432554,77.8776991 67.1253923,77.598988 67.0561102,77.2756697 C66.9876628,76.9518483 66.9529382,76.5954939 66.9529382,76.2076126 L66.9529382,71.1587829 L65.7155426,71.1587829 L65.7155426,76.5051056 C65.7155426,76.9967909 65.7849917,77.4569493 65.9225543,77.8835684 C66.0594491,78.3115292 66.2704674,78.6828086 66.553606,78.9974066 C66.8372454,79.3130109 67.1940067,79.5608659 67.6238898,79.7419778 C68.0527713,79.9227543 68.5602838,80.0136457 69.1435893,80.0136457 C69.7282304,80.0136457 70.2347412,79.9227543 70.6647913,79.7419778 C71.0946745,79.5608659 71.4484307,79.3130109 71.7278965,78.9974066 C72.0070284,78.6828086 72.2152087,78.3115292 72.3531052,77.8835684 C72.4906678,77.4569493 72.5591152,76.9967909 72.5591152,76.5051056 L72.5591152,71.1587829 L71.3227212,71.1587829 L71.3227212,76.2076126 Z" id="Fill-24" fill="#00C1DE" mask="url(#mask-4)"></path>
                    <path d="M92.0222538,76.8615271 C91.8499666,77.2973696 91.6098998,77.6666366 91.3010518,77.9683221 L90.2048915,76.595561 L89.4321035,77.2437068 L90.500217,78.5762209 C90.0978798,78.7663884 89.6599833,78.8611367 89.1865275,78.8611367 C88.7147412,78.8611367 88.2886978,78.7704131 87.9104007,78.5894689 C87.5317696,78.408357 87.2087312,78.1625143 86.9372788,77.8517732 C86.6678297,77.5411999 86.4598164,77.1809884 86.3132387,76.7708035 C86.1664942,76.360954 86.0930384,75.9227638 86.0930384,75.4574068 C86.0930384,74.9905406 86.1664942,74.5523504 86.3132387,74.1425009 C86.4598164,73.7333221 86.6678297,73.375123 86.9372788,73.0685743 C87.2087312,72.7620257 87.5317696,72.5180277 87.9104007,72.3372512 C88.2886978,72.1558039 88.7147412,72.0654156 89.1865275,72.0654156 C89.6599833,72.0654156 90.0840234,72.1558039 90.4624875,72.3372512 C90.8411185,72.5180277 91.1641569,72.7620257 91.4352755,73.0685743 C91.7070618,73.375123 91.9150751,73.7333221 92.0599833,74.1425009 C92.2065609,74.5523504 92.2795159,74.9905406 92.2795159,75.4574068 C92.2795159,75.9576446 92.1945409,76.4253493 92.0222538,76.8615271 M92.3175793,72.2654772 C91.9230885,71.8564662 91.4571452,71.5329802 90.9200835,71.2950193 C90.3835225,71.0583999 89.8045576,70.9388325 89.1865275,70.9388325 C88.5681636,70.9388325 87.9895326,71.0583999 87.4524708,71.2950193 C86.915409,71.5329802 86.4497997,71.8564662 86.0556427,72.2654772 C85.6593155,72.6753267 85.3499666,73.1569502 85.127429,73.7093415 C84.9035559,74.2617329 84.7917028,74.852862 84.7917028,75.483232 C84.7917028,76.1129313 84.9035559,76.7042281 85.127429,77.2564517 C85.3499666,77.8090107 85.6593155,78.2877834 86.0556427,78.6927697 C86.4497997,79.0989299 86.915409,79.4202359 87.4524708,79.6570229 C87.9895326,79.8951515 88.5681636,80.0133773 89.1865275,80.0133773 C89.5649917,80.0133773 89.9277629,79.9687702 90.2763439,79.8778788 C90.6229215,79.7864844 90.9481302,79.6640661 91.2491319,79.5087795 L92.3312688,80.8295548 L93.0920367,80.1815766 L92.0599833,78.9265382 C92.533606,78.5114901 92.9038898,78.0089046 93.1753422,77.4177755 C93.4467947,76.8266463 93.5816861,76.1816867 93.5816861,75.483232 C93.5816861,74.852862 93.4686644,74.2617329 93.2467947,73.7093415 C93.0229215,73.1569502 92.7137396,72.6753267 92.3175793,72.2654772" id="Fill-25" fill="#00C1DE" mask="url(#mask-4)"></path>
                </g>
            </g>
        </g>
    </g>
</svg>